<svg width="40" height="40" viewBox="0 0 40 40" fill="none" xmlns="http://www.w3.org/2000/svg">
<path d="M10.005 20H23.755L18.3384 14.5833L19.445 13.3333L26.945 20.8333L19.445 28.3333L18.3384 27.0833L23.755 21.6667H10.005V20ZM35.0051 20.8333C35.0051 22.9126 34.5955 24.9715 33.7998 26.8925C33.0041 28.8135 31.8378 30.5589 30.3676 32.0292C28.8973 33.4995 27.1519 34.6657 25.2309 35.4614C23.3099 36.2571 21.251 36.6667 19.1717 36.6667C17.0925 36.6667 15.0335 36.2571 13.1126 35.4614C11.1916 34.6657 9.44612 33.4995 7.97586 32.0292C6.50559 30.5589 5.33932 28.8135 4.54362 26.8925C3.74792 24.9715 3.33838 22.9126 3.33838 20.8333C3.33838 16.6341 5.00653 12.6068 7.97586 9.63748C10.9452 6.66815 14.9725 5 19.1717 5C23.371 5 27.3982 6.66815 30.3676 9.63748C33.3369 12.6068 35.0051 16.6341 35.0051 20.8333ZM33.3384 20.8333C33.3384 17.0761 31.8458 13.4728 29.1891 10.816C26.5323 8.15922 22.9289 6.66667 19.1717 6.66667C15.4145 6.66667 11.8111 8.15922 9.15437 10.816C6.4976 13.4728 5.00505 17.0761 5.00505 20.8333C5.00505 24.5906 6.4976 28.1939 9.15437 30.8507C11.8111 33.5074 15.4145 35 19.1717 35C22.9289 35 26.5323 33.5074 29.1891 30.8507C31.8458 28.1939 33.3384 24.5906 33.3384 20.8333Z" fill="#E5E5E5"/>
</svg>
