<svg width="139" height="46" viewBox="0 0 139 46" fill="none" xmlns="http://www.w3.org/2000/svg">
<path d="M26.8 34.856L23.056 35.24L22.192 14.072L15.616 34.904L12.4 35L4.768 13.736L4.528 35.48L0.0160002 35.24L1.6 3.464L5.008 3.608L13.936 29.288L21.52 3.56L25.696 3.656L26.8 34.856ZM46.9889 11.96L51.5489 12.824C46.9729 25.24 44.2849 32.712 43.4849 35.24C42.7169 37.768 42.1409 39.48 41.7569 40.376C41.4049 41.272 40.8929 42.2 40.2209 43.16C38.9089 45.016 36.9089 45.944 34.2209 45.944C31.5649 45.944 29.2929 45.448 27.4049 44.456L28.6049 40.712C30.5569 41.832 32.5729 42.392 34.6529 42.392C36.0609 42.392 37.1969 41.864 38.0609 40.808C38.9249 39.784 39.3569 38.632 39.3569 37.352C39.3569 36.104 38.8289 34.104 37.7729 31.352L30.1889 12.872L34.8929 11.768L41.5169 30.68L46.9889 11.96ZM52.6641 3.944L52.5201 0.391999L60.5841 0.00799847C60.2961 12.392 60.1521 19.64 60.1521 21.752L60.0561 34.952L56.2161 35.24V21.656C56.2161 17.112 56.1361 11.048 55.9761 3.464L52.6641 3.944ZM63.961 3.944L63.817 0.391999L71.881 0.00799847C71.593 12.392 71.449 19.64 71.449 21.752L71.353 34.952L67.513 35.24V21.656C67.513 17.112 67.433 11.048 67.273 3.464L63.961 3.944ZM94.6979 25.208L80.5379 25.304C80.5379 27.352 81.1139 29 82.2659 30.248C83.4179 31.464 84.7139 32.072 86.1539 32.072C87.5939 32.072 88.8259 31.848 89.8499 31.4C90.9059 30.92 91.6579 30.456 92.1059 30.008L92.7299 29.288L94.6979 31.88C92.8419 34.12 89.9619 35.24 86.0579 35.24C82.9219 35.24 80.5379 34.296 78.9059 32.408C77.2739 30.52 76.4579 27.928 76.4579 24.632C76.4579 21.304 77.4819 18.392 79.5299 15.896C81.6099 13.368 84.2659 12.104 87.4979 12.104C90.0899 12.104 91.9779 13 93.1619 14.792C94.3779 16.552 94.9859 18.856 94.9859 21.704C94.9859 22.888 94.8899 24.056 94.6979 25.208ZM91.2419 22.472C91.2419 20.168 90.8899 18.424 90.1859 17.24C89.5139 16.056 88.2979 15.464 86.5379 15.464C84.8099 15.464 83.3699 16.232 82.2179 17.768C81.0979 19.272 80.5219 20.872 80.4899 22.568L91.2419 22.472ZM103.108 18.104C106.404 13.976 109.396 11.912 112.084 11.912C115.86 11.912 117.748 14.568 117.748 19.88V24.584C117.748 29.864 117.796 33.32 117.892 34.952L113.716 35.24C113.844 29.096 113.908 24.856 113.908 22.52C113.908 20.152 113.716 18.456 113.332 17.432C112.948 16.408 112.164 15.896 110.98 15.896C109.828 15.896 108.468 16.664 106.9 18.2C105.332 19.736 104.324 21.368 103.876 23.096C103.428 24.824 103.204 27.192 103.204 30.2L103.444 34.952L99.1724 35.24C99.1084 27.4 99.0764 22.568 99.0764 20.744L98.8364 12.68L102.052 12.536L102.772 18.056L103.108 18.104ZM129.028 35.384C126.948 35.384 125.236 34.776 123.892 33.56C122.58 32.312 121.924 30.648 121.924 28.568C121.924 26.488 122.676 24.792 124.18 23.48C125.684 22.168 127.46 21.512 129.508 21.512C131.556 21.512 133.3 22.168 134.74 23.48V21.656C134.74 19.672 134.34 18.136 133.54 17.048C132.772 15.928 131.812 15.368 130.66 15.368C129.508 15.368 128.5 15.64 127.636 16.184C126.804 16.696 125.924 17.496 124.996 18.584L122.836 16.136C125.012 13.32 127.748 11.912 131.044 11.912C136.228 11.912 138.82 14.84 138.82 20.696C138.82 26.552 138.836 31.336 138.868 35.048H135.46L135.316 32.936L135.172 32.84C134.724 33.48 133.892 34.072 132.676 34.616C131.492 35.128 130.276 35.384 129.028 35.384ZM134.788 28.28C134.756 27.128 134.276 26.232 133.348 25.592C132.42 24.952 131.3 24.632 129.988 24.632C128.676 24.632 127.652 25 126.916 25.736C126.18 26.472 125.812 27.352 125.812 28.376C125.812 29.4 126.18 30.296 126.916 31.064C127.684 31.8 128.724 32.168 130.036 32.168C131.348 32.168 132.452 31.848 133.348 31.208C134.276 30.536 134.756 29.56 134.788 28.28Z" fill="white"/>
</svg>
